<svg xmlns="http://www.w3.org/2000/svg" xmlns:xlink="http://www.w3.org/1999/xlink" version="1.1" width="256" height="256" viewBox="0 0 256 256" xml:space="preserve">

<defs>
</defs>
<g style="stroke: none; stroke-width: 0; stroke-dasharray: none; stroke-linecap: butt; stroke-linejoin: miter; stroke-miterlimit: 10; fill: none; fill-rule: nonzero; opacity: 1;" transform="translate(1.4065934065934016 1.4065934065934016) scale(2.81 2.81)" >
	<path d="M 51.702 40.592 H 38.298 V 27.187 h 13.405 V 40.592 z M 41.331 37.558 h 7.337 v -7.337 h -7.337 V 37.558 z" style="stroke: none; stroke-width: 1; stroke-dasharray: none; stroke-linecap: butt; stroke-linejoin: miter; stroke-miterlimit: 10; fill: rgb(0,0,0); fill-rule: nonzero; opacity: 1;" transform=" matrix(1 0 0 1 0 0) " stroke-linecap="round" />
	<path d="M 51.702 57.645 H 38.298 V 44.24 h 13.405 V 57.645 z M 41.331 54.611 h 7.337 v -7.338 h -7.337 V 54.611 z" style="stroke: none; stroke-width: 1; stroke-dasharray: none; stroke-linecap: butt; stroke-linejoin: miter; stroke-miterlimit: 10; fill: rgb(0,0,0); fill-rule: nonzero; opacity: 1;" transform=" matrix(1 0 0 1 0 0) " stroke-linecap="round" />
	<path d="M 76.779 53.644 H 63.373 V 40.24 h 13.406 V 53.644 z M 66.407 50.611 h 7.338 v -7.337 h -7.338 V 50.611 z" style="stroke: none; stroke-width: 1; stroke-dasharray: none; stroke-linecap: butt; stroke-linejoin: miter; stroke-miterlimit: 10; fill: rgb(0,0,0); fill-rule: nonzero; opacity: 1;" transform=" matrix(1 0 0 1 0 0) " stroke-linecap="round" />
	<path d="M 76.779 70.697 H 63.373 V 57.292 h 13.406 V 70.697 z M 66.407 67.663 h 7.338 v -7.337 h -7.338 V 67.663 z" style="stroke: none; stroke-width: 1; stroke-dasharray: none; stroke-linecap: butt; stroke-linejoin: miter; stroke-miterlimit: 10; fill: rgb(0,0,0); fill-rule: nonzero; opacity: 1;" transform=" matrix(1 0 0 1 0 0) " stroke-linecap="round" />
	<path d="M 26.626 53.644 H 13.222 V 40.24 h 13.405 V 53.644 z M 16.255 50.611 h 7.337 v -7.337 h -7.337 V 50.611 z" style="stroke: none; stroke-width: 1; stroke-dasharray: none; stroke-linecap: butt; stroke-linejoin: miter; stroke-miterlimit: 10; fill: rgb(0,0,0); fill-rule: nonzero; opacity: 1;" transform=" matrix(1 0 0 1 0 0) " stroke-linecap="round" />
	<path d="M 26.626 70.697 H 13.222 V 57.292 h 13.405 V 70.697 z M 16.255 67.663 h 7.337 v -7.337 h -7.337 V 67.663 z" style="stroke: none; stroke-width: 1; stroke-dasharray: none; stroke-linecap: butt; stroke-linejoin: miter; stroke-miterlimit: 10; fill: rgb(0,0,0); fill-rule: nonzero; opacity: 1;" transform=" matrix(1 0 0 1 0 0) " stroke-linecap="round" />
	<path d="M 84.131 87.249 V 32.372 H 59.055 V 20.255 l -12.538 -5.967 v -2.173 l 11.539 -5.709 L 43.483 -0.283 v 14.571 l -12.538 5.967 v 12.118 H 5.869 v 54.877 H 0 v 3.034 h 90 v -3.034 H 84.131 z M 46.517 4.447 l 4.49 2.061 l -4.49 2.222 V 4.447 z M 45 16.926 l 11.021 5.245 v 53.438 h -4.318 V 61.292 H 38.298 v 14.316 h -4.319 V 22.171 L 45 16.926 z M 48.669 75.608 h -7.337 V 64.326 h 7.337 V 75.608 z M 8.903 35.406 h 22.042 v 40.202 H 25.11 v 3.034 h 39.78 v -3.034 h -5.835 V 35.406 h 22.043 v 51.843 H 8.903 V 35.406 z" style="stroke: none; stroke-width: 1; stroke-dasharray: none; stroke-linecap: butt; stroke-linejoin: miter; stroke-miterlimit: 10; fill: rgb(0,0,0); fill-rule: nonzero; opacity: 1;" transform=" matrix(1 0 0 1 0 0) " stroke-linecap="round" />
	<rect x="20.86" y="81.61" rx="0" ry="0" width="48.27" height="3.03" style="stroke: none; stroke-width: 1; stroke-dasharray: none; stroke-linecap: butt; stroke-linejoin: miter; stroke-miterlimit: 10; fill: rgb(0,0,0); fill-rule: nonzero; opacity: 1;" transform=" matrix(1 0 0 1 0 0) "/>
</g>
</svg>